<?xml version="1.0" standalone="no"?>
<!DOCTYPE svg PUBLIC "-//W3C//DTD SVG 20010904//EN"
 "http://www.w3.org/TR/2001/REC-SVG-20010904/DTD/svg10.dtd">
<svg version="1.0" xmlns="http://www.w3.org/2000/svg"
 width="225.000000pt" height="225.000000pt" viewBox="0 0 225.000000 225.000000"
 preserveAspectRatio="xMidYMid meet">

<g transform="translate(0.000000,225.000000) scale(0.100000,-0.100000)"
fill="#000000" stroke="none">
<path d="M964 2236 c-49 -22 -71 -63 -89 -167 -9 -51 -17 -94 -18 -94 -3 -1
-140 -59 -147 -63 -4 -1 -38 20 -76 48 -127 93 -171 90 -287 -19 -102 -96
-127 -134 -127 -191 0 -40 7 -58 45 -111 72 -102 72 -100 43 -166 -14 -32 -28
-65 -31 -74 -4 -12 -27 -20 -79 -29 -178 -28 -198 -53 -198 -251 0 -189 20
-216 178 -244 l97 -17 32 -77 33 -76 -55 -80 c-63 -92 -71 -120 -55 -170 13
-40 121 -161 184 -207 62 -45 117 -40 197 17 102 73 98 72 176 39 37 -15 71
-32 74 -37 3 -4 11 -45 18 -90 23 -151 59 -177 247 -177 177 0 215 25 240 156
8 43 17 88 19 99 3 14 28 30 81 52 l76 32 67 -48 c86 -63 103 -71 143 -71 45
0 108 42 184 121 69 73 94 115 94 159 0 38 -9 56 -71 142 l-48 66 32 74 c18
40 36 76 42 80 5 4 32 10 60 13 177 23 205 58 205 256 0 184 -24 217 -177 240
-45 7 -86 15 -90 18 -9 7 -63 136 -63 151 0 5 25 46 55 90 86 126 77 167 -65
304 -125 121 -161 124 -293 31 l-76 -54 -63 28 c-35 16 -70 31 -79 34 -12 4
-20 27 -29 79 -20 129 -39 163 -103 187 -41 16 -265 13 -303 -3z m287 -222
c10 -56 22 -110 27 -121 6 -11 39 -28 80 -41 39 -12 91 -34 117 -47 25 -14 58
-25 72 -25 15 0 58 23 107 58 44 32 86 61 92 64 6 4 45 -28 88 -71 l77 -77
-66 -91 c-73 -102 -77 -123 -41 -186 13 -23 34 -72 46 -109 12 -37 30 -74 39
-81 9 -8 63 -23 121 -32 58 -10 108 -23 112 -29 4 -6 8 -51 8 -101 0 -49 -4
-95 -8 -101 -4 -6 -54 -19 -112 -29 -58 -9 -113 -24 -122 -32 -9 -8 -25 -38
-34 -67 -9 -28 -30 -77 -45 -110 -16 -32 -29 -69 -29 -83 0 -15 25 -59 60
-108 33 -46 60 -89 60 -97 0 -7 -33 -46 -73 -86 l-72 -72 -92 65 c-97 69 -130
78 -171 49 -13 -9 -60 -29 -105 -46 -45 -16 -89 -36 -98 -44 -11 -10 -23 -54
-34 -124 l-18 -110 -112 0 -112 0 -17 108 c-10 59 -24 115 -33 124 -8 9 -38
25 -67 34 -28 9 -77 30 -110 45 -32 16 -67 29 -78 29 -12 0 -57 -26 -102 -58
-44 -32 -87 -62 -95 -66 -9 -6 -35 14 -87 65 -41 40 -74 77 -74 82 0 5 29 49
65 99 36 50 65 97 65 105 0 7 -15 44 -34 81 -18 37 -41 90 -50 119 -9 28 -23
56 -30 62 -7 6 -53 18 -102 27 -49 8 -99 17 -111 20 -22 4 -23 8 -23 114 0
126 -17 109 134 135 50 8 95 20 102 27 6 7 20 38 29 68 10 30 31 81 46 112 16
32 29 68 29 80 0 13 -30 65 -66 116 l-67 94 74 74 c40 41 78 74 83 74 5 0 46
-27 91 -59 45 -32 92 -62 103 -65 14 -5 44 5 89 27 37 19 92 42 121 52 30 9
59 26 66 38 8 12 19 58 26 102 21 140 6 126 133 123 l111 -3 17 -101z"/>
<path d="M999 1592 c-243 -64 -400 -317 -348 -564 38 -184 193 -339 377 -377
247 -52 500 105 564 348 94 362 -231 687 -593 593z m258 -134 c80 -29 172
-121 201 -201 29 -77 30 -186 1 -262 -27 -73 -104 -156 -177 -192 -51 -25 -68
-28 -157 -28 -89 0 -106 3 -156 28 -67 32 -142 109 -172 175 -18 38 -22 65
-22 147 0 89 3 106 28 157 35 71 119 150 190 177 73 28 188 28 264 -1z"/>
</g>
</svg>
